<svg width="16px" height="16px" xmlns="http://www.w3.org/2000/svg" xmlns:xlink="http://www.w3.org/1999/xlink"  id="Слой_1" style="enable-background:new 0 0 512 512;" version="1.1" viewBox="0 0 512 512" xml:space="preserve"><path d="M456,506H56c-27.617,0-50-22.392-50-50V56  C6,28.383,28.383,6,56,6h400c27.608,0,50,22.383,50,50v400C506,483.608,483.608,506,456,506z M76.391,446.469h77.344V186.313H76.391  V446.469z M120.571,69.994c-27.041,0-44.707,18.213-44.707,41.944c0,23.183,17.109,38.369,43.603,38.369  c28.145,0,45.264-15.186,45.264-38.369C164.164,88.207,147.612,69.994,120.571,69.994z M445.961,297.377  c0-79.472-24.951-116.445-80.136-116.445c-45.264,0-66.983,28.916-78.028,46.572h-1.65l0.088-41.191h-70.664  c1.103,24.287,0.576,53.115,0.576,86.777v173.379h80.068V301.244c0-7.724,0.547-15.459,2.754-20.976  c6.074-15.459,13.867-31.455,37.051-31.455c30.352,0,39.853,23.73,39.853,58.496v139.16h70.088V297.377z" id="linkedin_2_" style="fill-rule:evenodd;clip-rule:evenodd;fill:#828282;"/></svg>
